# xmcd
#
# Track frame offsets: 
#        150
#        38108
#        55673
#        90847
#        109410
#        125611
#        161155
#        182296
#        197481
#        216207
#        241159
#
# Disc length: 3611 seconds
#
# Revision: 0
# Processed by: cddbd v1.5.2PL0 Copyright (c) Steve Scherf et al.
# Submitted via: ExactAudioCopy v1.3
#
DISCID=8a0e190b
DTITLE=Rick Derringer - Rock And Roll Hoochie Koo
DYEAR=2001
DGENRE=Blues Rock
TTITLE0=Rock And Roll Hoochie Koo
TTITLE1=Guitars And Woman
TTITLE2=Jump Jump Jump
TTITLE3=On My Way Up
TTITLE4=Hang On Sloopy
TTITLE5=All The Young Dudes
TTITLE6=Beyond The Universe
TTITLE7=Let Me In
TTITLE8=Party At The Hotel
TTITLE9=Right Place,Wrong Time
TTITLE10=Just Another Night
EXTD=
EXTT0=
EXTT1=
EXTT2=
EXTT3=
EXTT4=
EXTT5=
EXTT6=
EXTT7=
EXTT8=
EXTT9=
EXTT10=
PLAYORDER=
